<svg width="77" height="20" viewBox="0 0 77 20" fill="none" xmlns="http://www.w3.org/2000/svg">
<g clip-path="url(#clip0_2001_837)">
<path fill-rule="evenodd" clip-rule="evenodd" d="M43.8003 0C40.2559 0 38.2724 2.43548 37.3294 4.08065C36.8579 2.12903 35.2646 0 31.9154 0C28.5661 0 26.6639 1.98387 25.4933 3.93548V0.177419H21.3799V19.9839H25.5908V11.5323C25.5908 8.08065 27.1841 3.24194 30.7447 3.24194C33.1347 3.24194 33.3136 4.98387 33.3136 7.45161V19.9839H37.5245V11.1452C37.5245 8.40323 39.0203 3.24194 42.6297 3.24194C45.0359 3.24194 45.2473 5.09677 45.2473 6.98387V19.9839H49.4745V5.69355C49.4745 2.17742 47.2958 0 43.8165 0H43.8003Z" fill="white"/>
<path fill-rule="evenodd" clip-rule="evenodd" d="M67.375 0.177422H62.3186L52.7424 20H57.5061C57.5061 20 59.8311 14.7742 60.0262 14.3387H69.0333C69.2284 14.7742 71.5534 20 71.5534 20H77L67.375 0.177422ZM61.1805 11.7581C61.5707 10.871 64.0582 5.29033 64.5623 4.12903C65.0663 5.29033 67.5213 10.871 67.9115 11.7581H61.1805Z" fill="white"/>
<path fill-rule="evenodd" clip-rule="evenodd" d="M7.83657 9.16129C8.3731 8.62903 16.925 0.177416 16.925 0.177416H11.7874C11.7874 0.177416 5.43032 6.69355 4.2272 7.93548L4.21094 0.0967712H0V20H4.21094V10.8871C5.33277 12.1774 12.1613 20 12.1613 20H17.5754C17.5754 20 8.32432 9.74193 7.80405 9.17742L7.83657 9.16129Z" fill="white"/>
</g>
<defs>
<clipPath id="clip0_2001_837">
<rect width="77" height="20" fill="white"/>
</clipPath>
</defs>
</svg>
