<svg width="18" height="14" viewBox="0 0 18 14" fill="none" xmlns="http://www.w3.org/2000/svg">
<path fill-rule="evenodd" clip-rule="evenodd" d="M14.1393 0.859375C11.9613 0.859375 10.7425 2.35594 10.163 3.36687C9.87331 2.16763 8.89423 0.859375 6.83618 0.859375C4.77813 0.859375 3.60923 2.07843 2.88991 3.27767V0.968396H0.362305V13.1391H2.94986V7.94576C2.94986 5.8248 3.92893 2.85149 6.11686 2.85149C7.58547 2.85149 7.69537 3.92188 7.69537 5.43827V13.1391H10.2829V7.7079C10.2829 6.02302 11.2021 2.85149 13.42 2.85149C14.8986 2.85149 15.0284 3.99126 15.0284 5.15085V13.1391H17.626V4.35797C17.626 2.19736 16.2872 0.859375 14.1493 0.859375H14.1393Z" fill="white"/>
</svg>
