<svg width="16" height="15" viewBox="0 0 16 15" fill="none" xmlns="http://www.w3.org/2000/svg">
<path d="M6.81302 3.457C6.72025 3.24063 6.56018 3.05514 6.35343 2.92445C6.14667 2.79376 5.90272 2.72386 5.65302 2.72375H3.93364C3.61953 2.72375 3.31828 2.84022 3.09616 3.04752C2.87405 3.25483 2.74927 3.536 2.74927 3.82917C2.74927 9.01734 7.25552 13.2238 12.8155 13.2238C13.1295 13.2236 13.4306 13.1071 13.6526 12.8998C13.8746 12.6925 13.9993 12.4114 13.9993 12.1183V10.5136C13.9993 10.2804 13.9244 10.0526 13.7844 9.85953C13.6444 9.66645 13.4456 9.51696 13.2136 9.43034L11.5661 8.8155C11.3569 8.73736 11.129 8.71346 10.9064 8.74632C10.6838 8.77917 10.4749 8.86758 10.3018 9.00217L9.87677 9.3335C9.6371 9.52014 9.33128 9.61633 9.01947 9.60316C8.70765 9.58999 8.4124 9.46841 8.19177 9.26234L6.99427 8.14292C6.77373 7.93713 6.64358 7.66184 6.62935 7.37108C6.61513 7.08033 6.71787 6.79511 6.91739 6.57142L7.27177 6.17475C7.4163 6.0132 7.51131 5.81816 7.54674 5.61031C7.58217 5.40246 7.55669 5.18953 7.47302 4.99409L6.81302 3.457Z" stroke="black" stroke-width="1.2" stroke-linecap="round" stroke-linejoin="round"/>
</svg>
