<svg width="21" height="21" viewBox="0 0 21 21" fill="none" xmlns="http://www.w3.org/2000/svg">
<path opacity="0.8" d="M7.49048 12.0417H13.7404M2.28223 15.9999V10.4292C2.28223 9.87296 2.28223 9.59484 2.34993 9.33547C2.40989 9.1062 2.50853 8.88885 2.6416 8.69277C2.79263 8.4709 3.00201 8.28652 3.42075 7.92091L8.42171 3.54389C9.19878 2.86474 9.58732 2.52516 10.0238 2.39599C10.4092 2.28141 10.8206 2.28141 11.206 2.39599C11.6435 2.52516 12.0331 2.86474 12.8102 3.54598L17.8101 7.92091C18.2299 8.28757 18.4382 8.4709 18.5893 8.69173C18.7226 8.89103 18.8198 9.10561 18.8809 9.33547C18.9486 9.59484 18.9486 9.87296 18.9486 10.4292V16.0041C18.9486 17.1687 18.9486 17.751 18.7215 18.1968C18.5214 18.5885 18.2023 18.9069 17.8101 19.1061C17.3653 19.3332 16.783 19.3332 15.6185 19.3332H5.61238C4.44782 19.3332 3.86449 19.3332 3.41971 19.1061C3.02789 18.9067 2.70921 18.5884 2.50931 18.1968C2.28223 17.7499 2.28223 17.1666 2.28223 15.9999Z" stroke="#8E9CBC" stroke-width="3" stroke-linecap="round" stroke-linejoin="round"/>
</svg>
