<svg width="18" height="18" viewBox="0 0 18 18" fill="none" xmlns="http://www.w3.org/2000/svg">
<path d="M3.75 7.52879C3.75 10.9656 6.933 13.8075 8.34225 14.8969C8.54475 15.0527 8.646 15.132 8.79675 15.1717C8.91375 15.2029 9.08625 15.2029 9.20325 15.1717C9.354 15.132 9.45525 15.0534 9.65775 14.8969C11.067 13.8075 14.25 10.9656 14.25 7.52879C14.2487 6.88362 14.1122 6.24506 13.8483 5.64996C13.5844 5.05486 13.1984 4.515 12.7125 4.0615C11.7233 3.13999 10.3894 2.62385 9 2.625C7.61058 2.62385 6.27667 3.13999 5.2875 4.0615C4.80093 4.51452 4.41446 5.0543 4.15053 5.6495C3.88659 6.24471 3.75045 6.8835 3.75 7.52879Z" stroke="black" stroke-width="1.2" stroke-linecap="round" stroke-linejoin="round"/>
<path d="M7.5 6.87498C7.5 7.2507 7.65804 7.61104 7.93934 7.87671C8.22064 8.14239 8.60218 8.29165 9 8.29165C9.39782 8.29165 9.77936 8.14239 10.0607 7.87671C10.342 7.61104 10.5 7.2507 10.5 6.87498C10.5 6.49926 10.342 6.13892 10.0607 5.87325C9.77936 5.60757 9.39782 5.45831 9 5.45831C8.60218 5.45831 8.22064 5.60757 7.93934 5.87325C7.65804 6.13892 7.5 6.49926 7.5 6.87498Z" stroke="black" stroke-width="1.2" stroke-linecap="round" stroke-linejoin="round"/>
</svg>
