<svg width="15" height="14" viewBox="0 0 15 14" fill="none" xmlns="http://www.w3.org/2000/svg">
<path d="M6.65881 7.84672L9.90138 4.60414M13.2176 2.62621L10.4808 11.5215C10.2353 12.3191 10.1128 12.7179 9.90071 12.8498C9.81038 12.9062 9.70789 12.9402 9.60175 12.9491C9.49561 12.9579 9.38889 12.9413 9.29047 12.9006C9.06029 12.8049 8.87294 12.4322 8.49957 11.6855L6.76654 8.21808C6.7311 8.13775 6.68784 8.0611 6.63739 7.98924C6.60259 7.94389 6.56211 7.90319 6.51695 7.86813C6.44724 7.81971 6.37308 7.77804 6.29547 7.74367L2.82071 6.00529C2.07464 5.63192 1.70127 5.44523 1.60558 5.21505C1.56477 5.11654 1.54809 5.0097 1.55693 4.90343C1.56578 4.79716 1.59989 4.69455 1.65644 4.60414C1.78825 4.3927 2.18705 4.26958 2.98465 4.02401L11.8806 1.28729C12.5076 1.09392 12.8208 0.997564 13.0329 1.07585C13.124 1.10931 13.2067 1.16219 13.2754 1.23082C13.344 1.29946 13.3969 1.3822 13.4303 1.47331C13.508 1.68475 13.4116 1.9979 13.2189 2.6242L13.2176 2.62621Z" stroke="black" stroke-width="1.2" stroke-linecap="round" stroke-linejoin="round"/>
</svg>
