<svg width="19" height="20" viewBox="0 0 19 20" fill="none" xmlns="http://www.w3.org/2000/svg">
<path d="M16.7413 15.3563C16.8518 15.3563 16.9413 15.2668 16.9413 15.1563V1.40674C16.9413 1.29628 16.8518 1.20674 16.7413 1.20674L4.02764 1.20674L4.02698 1.20674C3.41021 1.20877 2.82021 1.46042 2.38551 1.90524C1.95097 2.3499 1.70676 2.95145 1.70479 3.57836V3.57899V16.2394C1.70479 16.2418 1.70483 16.2442 1.70491 16.2465C1.70484 16.2492 1.70479 16.2523 1.70479 16.2557C1.70479 17.615 2.74874 18.7938 4.02764 18.7938H16.7413C16.8518 18.7938 16.9413 18.7043 16.9413 18.5938V17.4479C16.9413 17.3374 16.8518 17.2479 16.7413 17.2479H4.02764C3.83877 17.2479 3.63993 17.1444 3.48225 16.957C3.32559 16.7708 3.22453 16.5177 3.22453 16.2556C3.22453 15.7593 3.62099 15.3563 4.06263 15.3563H16.7413ZM11.2741 7.08287L9.94297 8.29165V2.76446H12.9022V8.30383L11.5422 7.08215C11.4659 7.01359 11.3501 7.0139 11.2741 7.08287ZM5.46676 13.8105L5.46406 2.75254H8.42323V10.2867C8.42323 10.3971 8.51277 10.4867 8.62323 10.4867H9.73041C9.78012 10.4867 9.82805 10.4682 9.86485 10.4347L11.4134 9.02871L12.9792 10.4354C13.0159 10.4684 13.0635 10.4867 13.1129 10.4867H14.2219C14.3324 10.4867 14.4219 10.3971 14.4219 10.2867V2.75254H15.4216V13.8105H5.46676ZM3.94688 13.8135C3.6987 13.8264 3.45477 13.8803 3.22453 13.9727L3.22453 3.58794L3.22452 3.58732C3.22383 3.36549 3.3092 3.15333 3.4605 2.99716C3.59151 2.86193 3.76258 2.77823 3.94431 2.75756L3.94688 13.8135Z" fill="#A3AEC7" stroke="#A3AEC7" stroke-width="0.4" stroke-linejoin="round"/>
</svg>
