<svg width="18" height="18" viewBox="0 0 18 18" fill="none" xmlns="http://www.w3.org/2000/svg">
<path d="M5.57422 4.98941V12.7935C5.57422 13.547 5.57422 13.9238 5.72088 14.2117C5.84988 14.4649 6.05571 14.6707 6.30888 14.7997C6.59616 14.9464 6.97291 14.9464 7.72506 14.9464H10.1511C10.9032 14.9464 11.2793 14.9464 11.5666 14.7997C11.8202 14.6706 12.0261 14.4647 12.1552 14.2117C12.3019 13.9238 12.3019 13.5484 12.3019 12.7962V4.98739C12.3019 4.23523 12.3019 3.85848 12.1552 3.57121C12.0261 3.31794 11.82 3.1121 11.5666 2.98321C11.2793 2.83655 10.9026 2.83655 10.149 2.83655H7.72708C6.97358 2.83655 6.59683 2.83655 6.30888 2.98321C6.05571 3.11221 5.84988 3.31804 5.72088 3.57121C5.57422 3.85916 5.57422 4.23591 5.57422 4.98941Z" stroke="black" stroke-width="1.2" stroke-linecap="round" stroke-linejoin="round"/>
<line x1="5.81378" y1="13.8498" x2="12.0349" y2="13.8498" stroke="black" stroke-width="1.2"/>
<line x1="5.81378" y1="3.54606" x2="12.0349" y2="3.54606" stroke="black" stroke-width="1.2"/>
</svg>
