<svg width="16" height="15" viewBox="0 0 16 15" fill="none" xmlns="http://www.w3.org/2000/svg">
<path d="M12.4312 11.2229C13.1195 11.2229 13.4636 11.2229 13.7346 11.1106C13.914 11.0364 14.0769 10.9276 14.2142 10.7903C14.3514 10.6531 14.4602 10.4901 14.5345 10.3108C14.6467 10.0398 14.6467 9.69563 14.6467 9.00732V6.19871C14.6467 5.37304 14.6467 4.95947 14.4857 4.64412C14.3439 4.36609 14.1177 4.14013 13.8395 3.99864C13.5434 3.84725 13.1608 3.83839 12.4312 3.83765M12.4312 3.83765H3.56885M12.4312 3.83765V3.24461C12.4312 2.41894 12.4312 2.00536 12.2702 1.69001C12.1284 1.41199 11.9021 1.18603 11.6239 1.04454C11.3086 0.883545 10.895 0.883545 10.0679 0.883545H5.93213C5.10498 0.883545 4.69141 0.883545 4.37532 1.04454C4.0974 1.18615 3.87145 1.4121 3.72985 1.69001C3.56885 2.0061 3.56885 2.41968 3.56885 3.24683V3.83765M3.56885 3.83765C2.83918 3.83765 2.45589 3.84725 2.15974 3.99864C1.88183 4.14025 1.65588 4.3662 1.51427 4.64412C1.35327 4.96021 1.35327 5.37378 1.35327 6.20093V9.00732C1.35327 9.69563 1.35327 10.0398 1.46553 10.3108C1.53967 10.4901 1.64841 10.653 1.78551 10.7902C1.92262 10.9275 2.08542 11.0363 2.26461 11.1106C2.53639 11.2229 2.88054 11.2229 3.56885 11.2229M6.52295 6.79175H9.47705M5.78442 9.74585H10.2156C10.9039 9.74585 11.248 9.74585 11.5191 9.85811C11.6983 9.93225 11.8612 10.041 11.9985 10.1781C12.1357 10.3152 12.2446 10.478 12.3189 10.6572C12.4312 10.929 12.4312 11.2731 12.4312 11.9614C12.4312 12.6497 12.4312 12.9939 12.3189 13.2649C12.2447 13.4443 12.1358 13.6072 11.9986 13.7444C11.8613 13.8817 11.6984 13.9905 11.5191 14.0647C11.248 14.177 10.9039 14.177 10.2156 14.177H5.78442C5.09612 14.177 4.75197 14.177 4.48019 14.0647C4.11843 13.9148 3.83101 13.6274 3.6811 13.2657C3.56885 12.9939 3.56885 12.6497 3.56885 11.9614C3.56885 11.2731 3.56885 10.929 3.6811 10.6572C3.83101 10.2954 4.11843 10.008 4.48019 9.85811C4.75197 9.74585 5.09612 9.74585 5.78442 9.74585Z" stroke="black" stroke-width="1.2" stroke-linecap="round" stroke-linejoin="round"/>
</svg>
