<svg width="15" height="16" viewBox="0 0 15 16" fill="none" xmlns="http://www.w3.org/2000/svg">
<path d="M3.46602 5.49902H0.337402V15.4998H3.46602V5.49902Z" fill="#A3AEC7"/>
<path d="M14.736 10.1379V15.4999H11.608V10.5007C11.608 9.18609 11.4501 8.12123 9.91908 8.12123C8.38802 8.12123 8.23256 9.18844 8.23256 10.5007V15.4999H5.10449V5.49913H8.23256V6.92915C8.70366 5.8902 9.59403 5.23291 11.2405 5.23291C11.3677 5.23291 11.4902 5.23762 11.608 5.24469C14.4322 5.41196 14.736 7.53697 14.736 10.1379Z" fill="#A3AEC7"/>
<path d="M3.6961 2.29047C3.6961 1.301 2.89274 0.5 1.90327 0.5C0.913795 0.5 0.112793 1.301 0.112793 2.29047C0.112793 3.27995 0.913795 4.08095 1.90327 4.08095C2.89274 4.08095 3.69374 3.27995 3.69374 2.29047H3.6961Z" fill="#A3AEC7"/>
</svg>
